# xmcd CD database file
#
# Track frame offsets:
#	150
#	11314
#	24899
#	38587
#	52609
#	67350
#	80838
#	92866
#	104365
#	119641
#	133124
#	144288
#	158431
#	169503
#	182375
#	195539
#	210891
#	222289
#	234749
#	246807
#	258972
#
# Disc length: 3615 seconds
#
# Revision: 0
# Processed by: cddbd v1.5.2PL0 Copyright (c) Steve Scherf et al.
# Submitted via: CDex 1.70beta2
#
DISCID=100e1d15
DTITLE=Sonny Stitt - Bebop Story Vol 2 1950-51 Disc 061
DYEAR=2008
DGENRE=Jazz
TTITLE0=Avalon
TTITLE1=Later
TTITLE2=Ain't Misbehavin'
TTITLE3=Mean To Me
TTITLE4=Stairway To The Stars
TTITLE5=Count Every Star
TTITLE6=Nice Work If You Can Get It
TTITLE7=There Will Never Be Another You
TTITLE8=Blazin'
TTITLE9=To Think You've Chosen Me
TTITLE10=After You've Gone
TTITLE11=Our Very Own
TTITLE12='S Wonderful
TTITLE13=Nevertheless
TTITLE14=Jeepers Creepers
TTITLE15=Imagination
TTITLE16=Cherokee
TTITLE17=Liza
TTITLE18=Can't We Be Friends
TTITLE19=The Thrill Of Your Kiss
TTITLE20=It The Moon Turns Green
EXTD=YEAR: 2008
EXTT0=
EXTT1=
EXTT2=
EXTT3=
EXTT4=
EXTT5=
EXTT6=
EXTT7=
EXTT8=
EXTT9=
EXTT10=
EXTT11=
EXTT12=
EXTT13=
EXTT14=
EXTT15=
EXTT16=
EXTT17=
EXTT18=
EXTT19=
EXTT20=
PLAYORDER=
